<!--Copied blob-->
<svg class="home__blob" viewBox="0 0 200 187" xmlns="http://www.w3.org/2000/svg" xmlns:>
    <mask id="mask0" mask-type="alpha">
        <path d="M190.312 36.4879C206.582 62.1187 201.309 102.826 182.328 134.186C163.346 165.547
        130.807 187.559 100.226 186.353C69.6454 185.297 41.0228 161.023 21.7403 129.362C2.45775
        97.8511 -7.48481 59.1033 6.67581 34.5279C20.9871 10.1032 59.7028 -0.149132 97.9666
        0.00163737C136.23 0.303176 174.193 10.857 190.312 36.4879Z"/> 
    </mask> 
    <g mask="url(#mask0)">
        <path d="M190.312 36.4879C206.582 62.1187 201.309 102.826 182.328 134.186C163.346
        165.547 130.807 187.559 100.226 186.353C69.6454 185.297 41.0228 161.023 21.7403
        129.362C2.45775 97.8511 -7.48481 59.1033 6.67581 34.5279C20.9871 10.1032 59.7028
        -0.149132 97.9666 0.00163737C136.23 0.303176 174.193 10.857 190.312 36.4879Z"/>
        <image xlink:href=""/>
    </g>
</svg>

<purple (#6E57E0) blob)
<svg class="home__blob" viewBox="0 0 200 200" xmlns="http://www.w3.org/2000/svg">
  <path fill="#6E57E0" d="M55.4,-49.7C62.7,-35,53.3,-12.5,44.4,3.5C35.5,19.5,27,29.1,16.9,33.3C6.7,37.5,-5.1,36.4,
  -16.5,31.8C-27.9,27.3,-38.9,19.3,-45.8,5.7C-52.7,-7.9,-55.5,-27.2,-47.2,-42.1C-38.9,-57,-19.4,-67.6,2.3,-69.4C24,
  -71.2,48.1,-64.3,55.4,-49.7Z" transform="translate(100 100)" />
  <image xlink:href=""/>
</svg>


<!--Black blob-->
<svg  class="home__blob" viewBox="0 0 200 200" xmlns="http://www.w3.org/2000/svg">
  <path fill="#000000" d="M55.4,-49.7C62.7,-35,53.3,-12.5,44.4,3.5C35.5,19.5,27,29.1,16.9,33.3C6.7,37.5,
  -5.1,36.4,-16.5,31.8C-27.9,27.3,-38.9,19.3,-45.8,5.7C-52.7,-7.9,-55.5,-27.2,-47.2,-42.1C-38.9,-57,-19.4,
  -67.6,2.3,-69.4C24,-71.2,48.1,-64.3,55.4,-49.7Z" transform="translate(100 100)" />
  <image xlink:href=""/>
</svg>


<svg  class="home__blob" viewBox="0 0 200 200" xmlns="http://www.w3.org/2000/svg">
                                <path fill="#000000" d="M55.4,-49.7C62.7,-35,53.3,-12.5,44.4,3.5C35.5,19.5,27,29.1,16.9,33.3C6.7,37.5,
                                -5.1,36.4,-16.5,31.8C-27.9,27.3,-38.9,19.3,-45.8,5.7C-52.7,-7.9,-55.5,-27.2,-47.2,-42.1C-38.9,-57,-19.4,
                                -67.6,2.3,-69.4C24,-71.2,48.1,-64.3,55.4,-49.7Z" transform="translate(100 100)" />

                                <image class="home__blob-img" xlink:href=""/>
                            </svg>